<?xml version="1.0" encoding="utf-8"?>
<!-- Generator: Adobe Illustrator 19.2.1, SVG Export Plug-In . SVG Version: 6.00 Build 0)  -->
<svg version="1.1" id="Capa_1" xmlns="http://www.w3.org/2000/svg" xmlns:xlink="http://www.w3.org/1999/xlink" x="0px" y="0px"
	 viewBox="0 0 117 119" style="enable-background:new 0 0 117 119;" xml:space="preserve">
<style type="text/css">
	.st0{fill:#FFFFFF;}
	.st1{fill:#34150C;}
	.st2{fill:#E63A2A;}
</style>
<g>
	<path class="st0" d="M88,108.4c3.8,0,7-3.1,7-7V10.5c0-3.8-3.1-7-7-7c-1,0-1.8-0.8-1.8-1.8h-5c2.8,1.9,4.7,5.1,4.7,8.8v90.9
		c0,3.6-1.9,6.9-4.7,8.8h5C86.2,109.2,87,108.4,88,108.4z"/>
	<path class="st0" d="M100.6,108.4c3.8,0,7-3.1,7-7V10.5c0-3.8-3.1-7-7-7c-1,0-1.8-0.8-1.8-1.8h-5c2.8,1.9,4.7,5.1,4.7,8.8v90.9
		c0,3.6-1.9,6.9-4.7,8.8h5C98.9,109.2,99.7,108.4,100.6,108.4z"/>
	<path class="st1" d="M100.6,0c-1,0-1.8,0.8-1.8,1.8s0.8,1.8,1.8,1.8c3.8,0,7,3.1,7,7v90.9c0,3.8-3.1,7-7,7c-1,0-1.8,0.8-1.8,1.8
		s0.8,1.8,1.8,1.8c5.8,0,10.5-4.7,10.5-10.5V10.5C111.2,4.7,106.5,0,100.6,0z"/>
	<path class="st1" d="M98.6,101.5V10.5c0-3.6-1.9-6.9-4.7-8.8C92.2,0.7,90.2,0,88,0c-1,0-1.8,0.8-1.8,1.8S87,3.6,88,3.6
		c3.8,0,7,3.1,7,7v90.9c0,3.8-3.1,7-7,7c-1,0-1.8,0.8-1.8,1.8S87,112,88,112c2.2,0,4.2-0.7,5.9-1.8
		C96.7,108.3,98.6,105.1,98.6,101.5z"/>
	<path class="st0" d="M82.4,10.5c0-3.8-3.1-7-7-7h-58c-3.8,0-7,3.1-7,7v90.9c0,3.8,3.1,7,7,7h58c3.8,0,7-3.1,7-7L82.4,10.5
		L82.4,10.5z M23,25.2l-5.6-7.4c-0.7-0.9-1-2-1-3.1c0-2.8,2.3-5.2,5.2-5.2c1.1,0,2.1,0.3,2.9,0.9c0.8-0.6,1.9-0.9,2.9-0.9
		c2.8,0,5.2,2.3,5.2,5.2c0,1.1-0.4,2.2-1,3.1l-5.6,7.4c-0.3,0.4-0.9,0.7-1.4,0.7S23.3,25.7,23,25.2z M46.4,79.4
		c-0.6,0-1.1-0.3-1.4-0.7l-18.2-24c-1.7-2.2-2.6-4.8-2.6-7.6c0-7,5.7-12.6,12.6-12.6c3.7,0,7.1,1.6,9.5,4.3c2.4-2.7,5.8-4.3,9.5-4.3
		c7,0,12.6,5.7,12.6,12.6c0,2.8-0.9,5.4-2.6,7.6l-18.2,24C47.5,79.2,46.9,79.4,46.4,79.4z M71.2,102.5c-1.1,0-2.1-0.3-2.9-0.9
		c-0.8,0.6-1.9,0.9-2.9,0.9c-2.8,0-5.2-2.3-5.2-5.2c0-1.1,0.4-2.2,1-3.1l5.6-7.4c0.3-0.4,0.9-0.7,1.4-0.7c0.6,0,1.1,0.3,1.4,0.7
		l5.6,7.4c0.7,0.9,1,2,1,3.1C76.4,100.2,74.1,102.5,71.2,102.5z"/>
	<path class="st1" d="M85.9,101.5V10.5c0-3.6-1.9-6.9-4.7-8.8C79.6,0.7,77.6,0,75.4,0h-58C11.5,0,6.8,4.7,6.8,10.5v90.9
		c0,5.8,4.7,10.5,10.5,10.5h58c2.2,0,4.2-0.7,5.9-1.8C84.1,108.3,85.9,105.1,85.9,101.5z M75.4,108.4h-58c-3.8,0-7-3.1-7-7V10.5
		c0-3.8,3.1-7,7-7h58c3.8,0,7,3.1,7,7v90.9C82.4,105.3,79.2,108.4,75.4,108.4z"/>
	<path class="st2" d="M55.9,38c-3.3,0-6.3,1.8-7.9,4.7c-0.3,0.6-0.9,0.9-1.6,0.9c-0.6,0-1.2-0.4-1.6-0.9c-1.6-2.9-4.6-4.7-7.9-4.7
		c-5,0-9.1,4.1-9.1,9.1c0,2,0.6,3.9,1.8,5.5l16.7,22.1l16.7-22.1c1.2-1.6,1.8-3.5,1.8-5.5C64.9,42.1,60.9,38,55.9,38z"/>
	<path class="st1" d="M68.5,47.1c0-7-5.7-12.6-12.6-12.6c-3.7,0-7.1,1.6-9.5,4.3c-2.4-2.7-5.8-4.3-9.5-4.3c-7,0-12.6,5.7-12.6,12.6
		c0,2.8,0.9,5.4,2.6,7.6l18.2,24c0.3,0.4,0.9,0.7,1.4,0.7s1.1-0.3,1.4-0.7l18.2-24C67.6,52.5,68.5,49.9,68.5,47.1z M46.4,74.7
		L29.6,52.6c-1.2-1.6-1.8-3.5-1.8-5.5c0-5,4.1-9.1,9.1-9.1c3.3,0,6.3,1.8,7.9,4.7c0.3,0.6,0.9,0.9,1.6,0.9c0.6,0,1.2-0.4,1.6-0.9
		c1.6-2.9,4.6-4.7,7.9-4.7c5,0,9.1,4.1,9.1,9.1c0,2-0.6,3.9-1.8,5.5L46.4,74.7z"/>
	<path class="st2" d="M68.3,90.8l-4.2,5.6c-0.1,0.2-0.3,0.5-0.3,1c0,0.9,0.7,1.6,1.6,1.6c0.6,0,1.1-0.3,1.4-0.8
		c0.3-0.6,0.9-0.9,1.6-0.9c0.6,0,1.2,0.4,1.6,0.9c0.3,0.5,0.8,0.8,1.4,0.8c0.9,0,1.6-0.7,1.6-1.6c0-0.4-0.2-0.8-0.3-1L68.3,90.8z"/>
	<path class="st1" d="M69.7,86.8c-0.3-0.4-0.9-0.7-1.4-0.7c-0.6,0-1.1,0.3-1.4,0.7l-5.6,7.4c-0.7,0.9-1,2-1,3.1
		c0,2.8,2.3,5.2,5.2,5.2c1.1,0,2.1-0.3,2.9-0.9c0.8,0.6,1.9,0.9,2.9,0.9c2.8,0,5.2-2.3,5.2-5.2c0-1.1-0.4-2.2-1-3.1L69.7,86.8z
		 M71.2,98.9c-0.6,0-1.1-0.3-1.4-0.8c-0.3-0.6-0.9-0.9-1.6-0.9c-0.6,0-1.2,0.4-1.6,0.9c-0.3,0.5-0.8,0.8-1.4,0.8
		c-0.9,0-1.6-0.7-1.6-1.6c0-0.4,0.2-0.8,0.3-1l4.2-5.6l4.2,5.6c0.1,0.2,0.3,0.5,0.3,1C72.8,98.2,72.1,98.9,71.2,98.9z"/>
	<path class="st2" d="M24.4,21.2l4.2-5.6c0.1-0.2,0.3-0.5,0.3-1c0-0.9-0.7-1.6-1.6-1.6c-0.6,0-1.1,0.3-1.4,0.8
		c-0.3,0.6-0.9,0.9-1.6,0.9c-0.6,0-1.2-0.4-1.6-0.9c-0.3-0.5-0.8-0.8-1.4-0.8c-0.9,0-1.6,0.7-1.6,1.6c0,0.4,0.2,0.8,0.3,1L24.4,21.2
		z"/>
	<path class="st1" d="M25.9,25.2l5.6-7.4c0.7-0.9,1-2,1-3.1c0-2.8-2.3-5.2-5.2-5.2c-1.1,0-2.1,0.3-2.9,0.9c-0.8-0.6-1.9-0.9-2.9-0.9
		c-2.8,0-5.2,2.3-5.2,5.2c0,1.1,0.4,2.2,1,3.1l5.6,7.4c0.3,0.4,0.9,0.7,1.4,0.7S25.5,25.7,25.9,25.2z M21.5,13.1
		c0.6,0,1.1,0.3,1.4,0.8c0.3,0.6,0.9,0.9,1.6,0.9c0.6,0,1.2-0.4,1.6-0.9c0.3-0.5,0.8-0.8,1.4-0.8c0.9,0,1.6,0.7,1.6,1.6
		c0,0.4-0.2,0.8-0.3,1l-4.2,5.6l-4.2-5.6c-0.1-0.2-0.3-0.5-0.3-1C19.9,13.8,20.6,13.1,21.5,13.1z"/>
</g>
</svg>
