<?xml version="1.0" encoding="utf-8"?>
<!-- Generator: Adobe Illustrator 19.2.1, SVG Export Plug-In . SVG Version: 6.00 Build 0)  -->
<svg version="1.1" id="Layer_1" xmlns="http://www.w3.org/2000/svg" xmlns:xlink="http://www.w3.org/1999/xlink" x="0px" y="0px"
	 viewBox="0 0 129 161" style="enable-background:new 0 0 129 161;" xml:space="preserve">
<style type="text/css">
	.st001{fill:#D8B26B;}
	.st002{fill:#E02424;}
	.st003{opacity:0.1;enable-background:new    ;}
	.st004{fill:#0853A4;}
	.st004{fill:#A86D33;}
	.st006{fill:#D1943D;}
	.st007{fill:#FFFFFF;}
	.st008{fill:#5B330A;}
	.st009{fill:#FEBE2D;}
	.st010{fill:#FEE12D;}
</style>
<g>
	<rect x="113.3" y="53.3" class="st001" width="5.3" height="37.7"/>
	<ellipse class="st002" cx="115.9" cy="49.8" rx="8.5" ry="8.5"/>
	<path class="st003" d="M113.9,49.8c0-3.5,2.2-6.6,5.3-7.8c-1-0.4-2.1-0.6-3.2-0.6c-4.7,0-8.5,3.8-8.5,8.5c0,4.7,3.8,8.5,8.5,8.5
		c1.1,0,2.2-0.2,3.2-0.6C116,56.4,113.9,53.3,113.9,49.8z"/>
	<path class="st002" d="M122.8,95c0,0.8-0.7,1.5-1.5,1.5h-16.4c-0.8,0-1.5-0.7-1.5-1.5v-9.5c0-0.8,0.7-1.5,1.5-1.5h16.4
		c0.8,0,1.5,0.7,1.5,1.5V95z"/>
	<path class="st003" d="M112.9,95v-9.5c0-0.8,0.7-1.5,1.5-1.5h-9.6c-0.8,0-1.5,0.7-1.5,1.5V95c0,0.8,0.7,1.5,1.5,1.5h9.6
		C113.6,96.5,112.9,95.8,112.9,95z"/>
	<path class="st004" d="M106.7,103.8c0,0.8-0.7,1.5-1.5,1.5h-6.3c-0.8,0-1.5-0.7-1.5-1.5v-27c0-0.8,0.7-1.5,1.5-1.5h6.3
		c0.8,0,1.5,0.7,1.5,1.5V103.8z"/>
	<path class="st002" d="M88,34.3C84.9,18.7,71.1,7,54.6,7C38.1,7,24.3,18.7,21.2,34.3H88z"/>
	<path class="st001" d="M80,34.3c-3-11.2-13.2-19.5-25.4-19.5s-22.4,8.3-25.4,19.5H80z"/>
	<path class="st004" d="M72,34.3c-2.7-7-9.5-11.9-17.4-11.9s-14.7,5-17.4,11.9H72z"/>
	<rect x="8.4" y="109.2" class="st001" width="92.4" height="36.4"/>
	<path class="st003" d="M11.5,122.9c-1.7,0-3.1-1.4-3.1-3.1v25.7h6v-22.7L11.5,122.9L11.5,122.9z"/>
	<path class="st004" d="M5.1,143.7c-0.8,0-1.5,0.7-1.5,1.5v3.1c0,0.8,0.7,1.5,1.5,1.5h98.9c0.8,0,1.5-0.7,1.5-1.5v-3.1
		c0-0.8-0.7-1.5-1.5-1.5H5.1z"/>
	<g>
		<path class="st006" d="M8.4,109.2v10.6c0,1.7,1.4,3.1,3.1,3.1h86.3c1.7,0,3.1-1.4,3.1-3.1v-10.6H8.4z"/>
		<path class="st006" d="M100.8,66V34.2c0-1.7-1.4-3.1-3.1-3.1H11.5c-1.7,0-3.1,1.4-3.1,3.1V66H100.8z"/>
	</g>
	<path class="st003" d="M17.6,31.1h-6.1c-1.7,0-3.1,1.4-3.1,3.1V66h6.1V34.2C14.5,32.5,15.9,31.1,17.6,31.1z"/>
	<path class="st004" d="M22.4,55.8c-0.2,0-0.5-0.2-0.5-0.4c-0.5-1.8-1.9-3.3-3.8-3.8c-0.2-0.1-0.4-0.3-0.4-0.5v-8.8
		c0-0.2,0.2-0.5,0.4-0.5c1.8-0.5,3.2-1.9,3.7-3.6c0.1-0.2,0.3-0.4,0.5-0.4h64.3c0.2,0,0.5,0.2,0.5,0.4c0.5,1.8,2,3.3,3.9,3.7
		c0.2,0.1,0.4,0.3,0.4,0.5v8.7c0,0.3-0.2,0.5-0.4,0.5c-1.9,0.4-3.4,1.9-3.9,3.8c-0.1,0.2-0.3,0.4-0.5,0.4L22.4,55.8
		C22.4,55.8,22.4,55.8,22.4,55.8z"/>
	<path class="st001" d="M11.5,114.7c-1.7,0-3.1-1.4-3.1-3.1V66c0-1.7,1.4-3.1,3.1-3.1h86.3c1.7,0,3.1,1.4,3.1,3.1v45.6
		c0,1.7-1.4,3.1-3.1,3.1H11.5L11.5,114.7z"/>
	<rect x="16.2" y="69.5" class="st007" width="76.8" height="38.6"/>
	<rect x="16.2" y="69.5" class="st003" width="5" height="38.6"/>
	<path class="st008" d="M77.4,148.3c0,0.8-0.7,1.5-1.5,1.5H33.4c-0.8,0-1.5-0.7-1.5-1.5v-13.6c0-0.8,0.7-1.5,1.5-1.5h42.5
		c0.8,0,1.5,0.7,1.5,1.5L77.4,148.3L77.4,148.3z"/>
	<path class="st003" d="M38.2,148.3v-13.6c0-0.8,0.7-1.5,1.5-1.5h-6.3c-0.8,0-1.5,0.7-1.5,1.5v13.6c0,0.8,0.7,1.5,1.5,1.5h6.3
		C38.8,149.9,38.2,149.2,38.2,148.3z"/>
	<path class="st009" d="M82.5,151.5c0,0.8-0.7,1.5-1.5,1.5H69.2c-0.8,0-1.5-0.7-1.5-1.5v-3.5c0-0.8,0.7-1.5,1.5-1.5h11.7
		c0.8,0,1.5,0.7,1.5,1.5V151.5z"/>
	<path class="st010" d="M59,145.8c0,0.8-0.7,1.5-1.5,1.5H45.8c-0.8,0-1.5-0.7-1.5-1.5v-3.5c0-0.8,0.7-1.5,1.5-1.5h11.7
		c0.8,0,1.5,0.7,1.5,1.5V145.8z"/>
	<ellipse class="st007" cx="29.1" cy="46.8" rx="3.6" ry="3.6"/>
	<ellipse class="st010" cx="46.1" cy="46.8" rx="3.6" ry="3.6"/>
	<ellipse class="st007" cx="63.1" cy="46.8" rx="3.6" ry="3.6"/>
	<ellipse class="st010" cx="80.1" cy="46.8" rx="3.6" ry="3.6"/>
	<ellipse class="st004" cx="89.5" cy="132.9" rx="4.1" ry="4.1"/>
	<g>
		<ellipse class="st002" cx="20.3" cy="132.9" rx="4.1" ry="4.1"/>
		<path class="st002" d="M32.6,95.1c-0.2,0-0.3,0-0.5-0.1l-2.8-1.2c-0.1,0-0.1,0-0.2,0s-0.1,0-0.2,0L26.2,95c-0.1,0.1-0.3,0.1-0.5,0.1
			c-0.3,0-0.5-0.1-0.7-0.2c-0.3-0.2-0.5-0.7-0.5-1.1l0.3-3c0-0.1,0-0.2-0.1-0.3l-2-2.3c-0.3-0.3-0.4-0.8-0.2-1.2
			c0.1-0.4,0.5-0.7,0.9-0.8l3-0.7c0.1,0,0.2-0.1,0.3-0.2l1.6-2.6c0.2-0.4,0.6-0.6,1-0.6c0.4,0,0.8,0.2,1,0.6l1.6,2.6
			c0.1,0.1,0.2,0.2,0.3,0.2l3,0.7c0.4,0.1,0.7,0.4,0.9,0.8c0.1,0.4,0,0.8-0.2,1.2l-2,2.3c-0.1,0.1-0.1,0.2-0.1,0.3l0.3,3
			c0,0.4-0.2,0.8-0.5,1.1C33.1,95,32.9,95.1,32.6,95.1z"/>
	</g>
	<path class="st004" d="M58.1,95.1c-0.2,0-0.3,0-0.5-0.1l-2.8-1.2c-0.1,0-0.1,0-0.2,0c-0.1,0-0.1,0-0.2,0L51.6,95
		c-0.1,0.1-0.3,0.1-0.5,0.1c-0.3,0-0.5-0.1-0.7-0.2c-0.3-0.2-0.5-0.7-0.5-1.1l0.3-3c0-0.1,0-0.2-0.1-0.3l-2-2.3
		c-0.3-0.3-0.4-0.8-0.2-1.2c0.1-0.4,0.5-0.7,0.9-0.8l3-0.7c0.1,0,0.2-0.1,0.3-0.2l1.6-2.6c0.2-0.4,0.6-0.6,1-0.6
		c0.4,0,0.8,0.2,1,0.6l1.6,2.6c0.1,0.1,0.2,0.2,0.3,0.2l3,0.7c0.4,0.1,0.7,0.4,0.9,0.8c0.1,0.4,0,0.8-0.2,1.2l-2,2.3
		C59,90.5,59,90.6,59,90.7l0.3,3c0,0.4-0.2,0.8-0.5,1.1C58.6,95,58.3,95.1,58.1,95.1z"/>
	<path class="st002" d="M84.1,95.1c-0.2,0-0.3,0-0.5-0.1l-2.8-1.2c-0.1,0-0.1,0-0.2,0c-0.1,0-0.1,0-0.2,0L77.6,95
		c-0.1,0.1-0.3,0.1-0.5,0.1c-0.3,0-0.5-0.1-0.7-0.2c-0.3-0.2-0.5-0.7-0.5-1.1l0.3-3c0-0.1,0-0.2-0.1-0.3l-2-2.3
		c-0.3-0.3-0.4-0.8-0.2-1.2c0.1-0.4,0.5-0.7,0.9-0.8l3-0.7c0.1,0,0.2-0.1,0.3-0.2l1.6-2.6c0.2-0.4,0.6-0.6,1-0.6
		c0.4,0,0.8,0.2,1,0.6l1.6,2.6c0.1,0.1,0.2,0.2,0.3,0.2l3,0.7c0.4,0.1,0.7,0.4,0.9,0.8c0.1,0.4,0,0.8-0.2,1.2l-2,2.3
		c-0.1,0.1-0.1,0.2-0.1,0.3l0.3,3c0,0.4-0.2,0.8-0.5,1.1C84.6,95,84.4,95.1,84.1,95.1z"/>
	<path class="st001" d="M51.2,151.5c0,0.8-0.7,1.5-1.5,1.5H37.9c-0.8,0-1.5-0.7-1.5-1.5v-3.5c0-0.8,0.7-1.5,1.5-1.5h11.7
		c0.8,0,1.5,0.7,1.5,1.5V151.5z"/>
	<path class="st009" d="M64.2,151.5c0,0.8-0.7,1.5-1.5,1.5H50.9c-0.8,0-1.5-0.7-1.5-1.5v-3.5c0-0.8,0.7-1.5,1.5-1.5h11.7
		c0.8,0,1.5,0.7,1.5,1.5V151.5z"/>
	<path class="st004" d="M93.6,67.3H16.3c-1.2,0-2.2,1-2.2,2.2v38c0,1.2,1,2.2,2.2,2.2h77.3c1.2,0,2.2-1,2.2-2.2v-38
		C95.8,68.3,94.8,67.3,93.6,67.3z M18.5,71.8h21.2v33.5H18.5V71.8z M44.2,71.8h21.4v33.5H44.2V71.8z M91.3,105.3H70.1V71.8h21.2
		L91.3,105.3L91.3,105.3z"/>
</g>
</svg>
